<svg id="Layer_1" data-name="Layer 1" xmlns="http://www.w3.org/2000/svg" viewBox="0 0 512 512"><defs><style>.cls-1{fill:#fff;}.cls-2{fill:#38a8af;}.cls-3{fill:#4a5be6;}</style></defs><circle class="cls-1" cx="256" cy="256" r="256"/><path class="cls-2" d="M348.34,578.28A56,56,0,0,1,335.8,577a36.29,36.29,0,0,1-9.79-3.7v-14a62.78,62.78,0,0,0,10.43,4.37,39.5,39.5,0,0,0,12,1.75,31.43,31.43,0,0,0,7.21-.79,18.43,18.43,0,0,0,6-2.52,12.38,12.38,0,0,0,4.09-4.37,12.84,12.84,0,0,0,1.46-6.28,12.63,12.63,0,0,0-1.53-6.38,17.94,17.94,0,0,0-4.53-5.07,77.91,77.91,0,0,0-7.52-5.2,65.06,65.06,0,0,1-8.1-6.18,27.05,27.05,0,0,1-6.06-7.88,23.24,23.24,0,0,1-2.29-10.68,27.38,27.38,0,0,1,2.32-11.48,24.82,24.82,0,0,1,6.57-8.71,29.83,29.83,0,0,1,9.95-5.51,38.69,38.69,0,0,1,12.4-1.92,52.36,52.36,0,0,1,13.08,1.5,51.46,51.46,0,0,1,11.22,4.37l-5.55,12a55.09,55.09,0,0,0-9-3.48,35.08,35.08,0,0,0-9.73-1.37,20.23,20.23,0,0,0-6.15.9,14.5,14.5,0,0,0-4.94,2.61,11.94,11.94,0,0,0-3.29,4.24,13.58,13.58,0,0,0-1.18,5.77,12.33,12.33,0,0,0,1.47,6.25,16,16,0,0,0,4.27,4.69q2.81,2.15,6.83,4.62a64.25,64.25,0,0,1,9.31,7,25.14,25.14,0,0,1,5.93,8,24.5,24.5,0,0,1,2,10.39,28.43,28.43,0,0,1-2.58,12.53,24.21,24.21,0,0,1-7.27,8.87,32.56,32.56,0,0,1-10.94,5.29A50.14,50.14,0,0,1,348.34,578.28Z" transform="translate(-284 -284)"/><path class="cls-2" d="M412.82,577l17-80.23H405.55l2.75-13h63.64l-2.68,13H445L428,577Z" transform="translate(-284 -284)"/><path class="cls-2" d="M469.28,577,489,483.77h23.47q17.1,0,26.6,9.09t9.5,27.14a74.76,74.76,0,0,1-2.27,18.81,56.26,56.26,0,0,1-6.66,15.78,45.39,45.39,0,0,1-10.91,12.06,48,48,0,0,1-15,7.68A62.19,62.19,0,0,1,494.91,577Zm17.79-12.82h8.61A37.86,37.86,0,0,0,509,562a32.11,32.11,0,0,0,10.43-6.28,36.32,36.32,0,0,0,7.46-9.54,46.15,46.15,0,0,0,4.49-12,61,61,0,0,0,1.5-13.68q0-12.44-6-18.2t-16.1-5.78h-9.44Z" transform="translate(-284 -284)"/><path class="cls-3" d="M585.24,577l48.86-93.24h23.78L667.26,577H648.32l-1.53-22.19H616.62l-11,22.19Zm39.35-38.77h21.24l-1.66-24q-.25-3.83-.51-7.71c-.17-2.6-.21-5.25-.13-8h-.31q-1.22,3.51-2.81,7c-1.06,2.34-2.26,4.83-3.57,7.46Z" transform="translate(-284 -284)"/><path class="cls-3" d="M695.33,577l16.2-76.78H689.08l3.51-16.46H757l-3.51,16.46H731L714.78,577Z" transform="translate(-284 -284)"/></svg>