<svg id="Layer_1" data-name="Layer 1" xmlns="http://www.w3.org/2000/svg" viewBox="0 0 512 512"><defs><style>.cls-1{fill:#fff;}.cls-2{fill:#4a5be6;}.cls-3{fill:#38a8af;}</style></defs><circle class="cls-1" cx="256" cy="256" r="256"/><circle class="cls-2" cx="333.88" cy="143.31" r="65.31"/><path class="cls-2" d="M617.88,633H740.51c10,0,17.84-7.72,16.49-16.42-9.28-59.79-68.46-106.51-139.12-106.51S488,556.79,478.75,616.58c-1.35,8.7,6.47,16.42,16.5,16.42Z" transform="translate(-284 -284)"/><circle class="cls-3" cx="178.12" cy="143.31" r="65.31"/><path class="cls-3" d="M453.91,612.73c5.9-38,27.91-71.14,59.28-94.14a156.06,156.06,0,0,0-51.07-8.52c-70.66,0-129.84,46.72-139.12,106.51-1.35,8.7,6.47,16.42,16.49,16.42H456.35A37.89,37.89,0,0,1,453.91,612.73Z" transform="translate(-284 -284)"/></svg>