<svg width="100" height="100" viewBox="0 0 100 100" fill="none" xmlns="http://www.w3.org/2000/svg">
<g clip-path="url(#clip0_8_2)">
<rect width="100" height="100" fill="#A49999"/>
<circle cx="50" cy="35" r="22" fill="#F1F4F9"/>
<path d="M95 100C95 94.0905 93.836 88.2389 91.5746 82.7792C89.3131 77.3196 85.9984 72.3588 81.8198 68.1802C77.6412 64.0016 72.6804 60.6869 67.2208 58.4254C61.7611 56.164 55.9095 55 50 55C44.0905 55 38.2389 56.164 32.7792 58.4254C27.3196 60.6869 22.3588 64.0016 18.1802 68.1802C14.0016 72.3588 10.6869 77.3196 8.42542 82.7792C6.16396 88.2389 5 94.0905 5 100L50 100H95Z" fill="#F1F4F9"/>
</g>
<defs>
<clipPath id="clip0_8_2">
<rect width="100" height="100" fill="white"/>
</clipPath>
</defs>
</svg>
